# xmcd CD database file
#
# Track frame offsets:
#	150
#	26697
#	61239
#	90123
#	118158
#
# Disc length: 1886 seconds
#
# Revision: 0
# Processed by: cddbd v1.5.2PL0 Copyright (c) Steve Scherf et al.
# Submitted via: CDex 1.70beta2
#
DISCID=34075c05
DTITLE=Simone Damiani - Simone Damiani DEMO
DYEAR=2004
DGENRE=New Age
TTITLE0=Found And Lost
TTITLE1=Definite Space
TTITLE2=Snowfall
TTITLE3=Rain
TTITLE4=Dream Harp
EXTD=YEAR: 2004
EXTT0=
EXTT1=
EXTT2=
EXTT3=
EXTT4=
PLAYORDER=
